#!OML:ASF F:\VICON\USERDATA\INSTALL\rory3\rory3.ASF
:FULLY-SPECIFIED
:DEGREES
95
root 0.146838 18.0412 -10.9566 -1.75601 -2.56137 -6.93181
lowerback 11.2755 1.01653 5.84662
upperback 0.355106 2.24724 2.33742
thorax -5.83304 0.973437 -1.19309
lowerneck -16.1035 -3.42046 -1.05117
upperneck 22.4408 -4.43429 -0.305386
head 9.79239 -2.17949 -0.510338
rclavicle -3.33772e-014 -1.63997e-014
rhumerus -23.7232 -10.8398 -79.0436
rradius 31.6715
rwrist -3.38895
rhand -19.2139 20.7348
rfingers 7.12502
rthumb 7.09864 -9.12613
lclavicle -3.33772e-014 -1.63997e-014
lhumerus -34.1788 -0.254517 84.7988
lradius 24.7979
lwrist 5.58654
lhand -25.9254 28.0558
lfingers 7.12502
lthumb 0.617834 58.0346
rfemur -3.84244 5.02026 33.7514
rtibia 27.6666
rfoot -18.3652 -6.10609
rtoes 6.02673
lfemur -27.4132 1.64429 -12.8197
ltibia 53.1745
lfoot -6.91836 5.36534
ltoes 0.697703
96
root 0.150634 18.0213 -10.7967 -1.62632 -2.51615 -6.87753
lowerback 11.3244 1.05592 5.83327
upperback 0.30056 2.30081 2.27098
thorax -5.91279 0.996093 -1.26571
lowerneck -16.2817 -3.44567 -1.10678
upperneck 22.527 -4.45944 -0.279777
head 9.85878 -2.19134 -0.500418
rclavicle -7.67185e-015 -1.48095e-014
rhumerus -23.4345 -10.6582 -79.1541
rradius 32.0245
rwrist -3.53321
rhand -19.2199 20.8558
rfingers 7.12502
rthumb 7.09285 -9.00534
lclavicle -7.67185e-015 -1.48095e-014
lhumerus -34.3822 -0.631559 85.0492
lradius 24.5833
lwrist 6.44158
lhand -27.0442 26.8207
lfingers 7.12502
lthumb -0.462822 56.7999
rfemur -3.27945 5.10702 33.7417
rtibia 27.5075
rfoot -18.6571 -6.25179
rtoes 5.36009
lfemur -27.7381 1.24347 -12.7966
ltibia 50.8835
lfoot -8.4848 5.91142
ltoes -3.9741
97
root 0.152042 18.0161 -10.6354 -1.51742 -2.37341 -7.00679
lowerback 11.363 1.05808 5.96345
upperback 0.222076 2.32842 2.27191
thorax -6.0114 1.00189 -1.34365
lowerneck -16.3076 -3.48721 -1.09703
upperneck 22.589 -4.51477 -0.302567
head 9.88504 -2.21816 -0.518668
rclavicle 2.31305e-014 1.963e-014
rhumerus -23.2123 -10.2988 -79.2157
rradius 32.4106
rwrist -3.94835
rhand -18.844 21.2228
rfingers 7.12502
rthumb 7.45575 -8.62578
lclavicle 2.31305e-014 1.963e-014
lhumerus -34.526 -0.482262 84.9807
lradius 24.1813
lwrist 6.89843
lhand -26.782 26.2963
lfingers 7.12502
lthumb -0.209537 56.2759
rfemur -2.64454 5.09822 33.942
rtibia 27.234
rfoot -18.9529 -6.45222
rtoes 5.03313
lfemur -28.0605 0.867301 -12.5547
ltibia 48.6223
lfoot -7.96447 6.11763
ltoes -1.66987
98
root 0.155432 18.0113 -10.4691 -1.34474 -2.26299 -7.11937
lowerback 11.1798 1.02988 6.09081
upperback 0.209111 2.29585 2.31615
thorax -5.9214 0.98542 -1.35827
lowerneck -16.1482 -3.47503 -1.20315
upperneck 22.3647 -4.47124 -0.287911
head 9.77844 -2.20734 -0.483854
rclavicle 1.717e-014 -4.96962e-017
rhumerus -22.8611 -9.80785 -79.272
rradius 32.7643
rwrist -4.3039
rhand -18.6871 21.302
rfingers 7.12502
rthumb 7.60717 -8.54119
lclavicle 1.717e-014 -4.96962e-017
lhumerus -34.5071 0.234459 84.7293
lradius 23.7254
lwrist 6.51847
lhand -25.405 27.4104
lfingers 7.12502
lthumb 1.12045 57.3872
rfemur -1.99541 5.04179 34.0996
rtibia 26.7468
rfoot -19.1254 -6.58021
rtoes 4.7575
lfemur -28.4406 0.550811 -12.3462
ltibia 46.4922
lfoot -7.74352 6.21853
ltoes -0.670728
99
root 0.15983 18.0166 -10.2997 -1.08829 -2.308 -6.97853
lowerback 10.918 1.09399 5.97665
upperback 0.158588 2.34415 2.25714
thorax -5.82607 1.01368 -1.3574
lowerneck -16.0344 -3.41463 -1.33222
upperneck 22.2545 -4.38128 -0.169067
head 9.72411 -2.16379 -0.405772
rclavicle -4.82053e-015 8.44835e-016
rhumerus -22.591 -9.45469 -79.3696
rradius 33.0384
rwrist -4.43125
rhand -19.2138 21.3779
rfingers 7.12502
rthumb 7.09879 -8.483
lclavicle -4.82053e-015 8.44835e-016
lhumerus -34.606 0.445982 84.6805
lradius 23.4438
lwrist 5.52924
lhand -24.9222 28.7187
lfingers 7.12502
lthumb 1.58667 58.6926
rfemur -1.30037 5.13984 33.9633
rtibia 25.9585
rfoot -19.1063 -6.67431
rtoes 4.5151
lfemur -28.7736 0.21554 -12.3648
ltibia 44.406
lfoot -8.02347 6.27684
ltoes 1.6979
100
root 0.161941 18.0306 -10.1307 -0.943127 -2.28166 -7.04468
lowerback 10.8067 1.12646 6.01454
upperback 0.127803 2.38546 2.27001
thorax -5.79248 1.03361 -1.36848
lowerneck -16.1507 -3.39337 -1.39981
upperneck 22.2965 -4.34984 -0.0963438
head 9.76428 -2.14558 -0.368133
rclavicle 4.88575e-015 1.03368e-014
rhumerus -22.2755 -9.10118 -79.4277
rradius 33.252
rwrist -4.57053
rhand -19.4945 21.3109
rfingers 7.12502
rthumb 6.82783 -8.55897
lclavicle 4.88575e-015 1.03368e-014
lhumerus -34.6955 0.579969 84.6794
lradius 23.2638
lwrist 4.50434
lhand -25.2948 28.8136
lfingers 7.12502
lthumb 1.22681 58.7898
rfemur -0.477151 5.18564 34.0915
rtibia 25.1316
rfoot -18.9058 -6.96706
rtoes 4.16095
lfemur -28.8476 -0.249786 -12.095
ltibia 42.2522
lfoot -8.58954 6.1664
ltoes 3.47931
101
root 0.166292 18.0378 -9.95932 -0.754085 -2.33943 -7.16994
lowerback 10.5886 1.19364 6.14543
upperback 0.164999 2.47173 2.29345
thorax -5.62045 1.07838 -1.42276
lowerneck -16.3067 -3.36534 -1.38077
upperneck 22.2299 -4.28946 -0.185283
head 9.76685 -2.12567 -0.396363
rclavicle 7.73397e-015 -9.49197e-015
rhumerus -21.8767 -8.82328 -79.4925
rradius 33.5215
rwrist -4.60523
rhand -19.3373 21.4194
rfingers 7.12502
rthumb 6.97957 -8.44555
lclavicle 7.73397e-015 -9.49197e-015
lhumerus -34.5791 0.80321 84.6405
lradius 22.8762
lwrist 4.49783
lhand -25.8046 28.0335
lfingers 7.12502
lthumb 0.734501 58.012
rfemur 0.323886 5.18002 34.2298
rtibia 24.372
rfoot -18.7653 -7.07441
rtoes 4.38553
lfemur -28.8795 -0.70057 -11.7349
ltibia 39.6883
lfoot -8.54097 5.90949
ltoes 4.24209
102
root 0.173278 18.019 -9.78995 -0.518117 -2.5092 -7.35458
lowerback 10.3842 1.30953 6.38057
upperback 0.184488 2.63431 2.27934
thorax -5.46314 1.15687 -1.58519
lowerneck -16.5186 -3.32454 -1.3254
upperneck 22.1655 -4.26119 -0.111448
head 9.78399 -2.09834 -0.379405
rclavicle -1.83379e-014 -1.80894e-014
rhumerus -21.6584 -8.64489 -79.6029
rradius 33.9377
rwrist -4.6783
rhand -19.3082 21.6155
rfingers 7.12502
rthumb 7.00764 -8.24849
lclavicle -1.83379e-014 -1.80894e-014
lhumerus -34.5221 0.779306 84.6504
lradius 22.4904
lwrist 5.00523
lhand -25.9705 27.9585
lfingers 7.12502
lthumb 0.574222 57.9375
rfemur 0.979133 5.2776 34.4279
rtibia 23.8473
rfoot -18.894 -7.12904
rtoes 4.19912
lfemur -28.9625 -0.938797 -11.3864
ltibia 36.6013
lfoot -7.73199 5.94835
ltoes 3.44436
103
root 0.179464 17.9953 -9.61797 -0.353701 -2.61996 -7.48984
lowerback 10.3414 1.45887 6.59355
upperback 0.0676288 2.85641 2.19391
thorax -5.53251 1.25485 -1.82495
lowerneck -16.4784 -3.33373 -1.13963
upperneck 22.1337 -4.34649 -0.0242734
head 9.76302 -2.11222 -0.389863
rclavicle -7.86752e-015 -1.62506e-014
rhumerus -21.829 -8.80574 -79.6342
rradius 34.3473
rwrist -4.69447
rhand -19.0947 22.0099
rfingers 7.12502
rthumb 7.21377 -7.84715
lclavicle -7.86752e-015 -1.62506e-014
lhumerus -34.7549 0.47247 84.6184
lradius 22.2735
lwrist 4.94264
lhand -25.1706 28.1671
lfingers 7.12502
lthumb 1.34685 58.1426
rfemur 1.58933 5.35056 34.5792
rtibia 23.561
rfoot -19.2444 -7.13565
rtoes 3.76535
lfemur -28.9679 -1.22847 -11.1399
ltibia 33.1742
lfoot -6.61995 6.36385
ltoes -1.10441
104
root 0.184681 17.959 -9.44327 -0.195647 -2.73575 -7.51816
lowerback 10.3389 1.58402 6.65801
upperback -0.0601587 3.03237 2.0983
thorax -5.64446 1.33211 -1.98798
lowerneck -16.5593 -3.32637 -0.963509
upperneck 22.1414 -4.39999 0.0416348
head 9.77835 -2.11388 -0.404776
rclavicle 1.76233e-014 -1.84994e-014
rhumerus -21.8237 -8.80996 -79.7149
rradius 34.5578
rwrist -4.72686
rhand -18.9247 22.0518
rfingers 7.12502
rthumb 7.3778 -7.79957
lclavicle 1.76233e-014 -1.84994e-014
lhumerus -34.8781 0.560512 84.3956
lradius 21.9003
lwrist 4.26506
lhand -24.7075 27.0271
lfingers 7.12502
lthumb 1.79409 56.9993
rfemur 2.24624 5.29923 34.5932
rtibia 23.1786
rfoot -19.4113 -7.07754
rtoes 3.4469
lfemur -28.9954 -1.69254 -10.937
ltibia 29.7747
lfoot -5.54356 7.00107
ltoes -8.26789
105
root 0.193141 17.9379 -9.27289 0.0178286 -2.71019 -7.65189
lowerback 10.2737 1.65767 6.83543
upperback -0.126213 3.14797 2.06971
thorax -5.6579 1.38173 -2.13141
lowerneck -16.6373 -3.33138 -0.824126
upperneck 22.0118 -4.42051 -0.0444276
head 9.74122 -2.12203 -0.460132
rclavicle -2.74913e-014 1.31695e-015
rhumerus -21.6802 -8.75176 -79.7469
rradius 34.8416
rwrist -4.82918
rhand -18.8321 22.0429
rfingers 7.12502
rthumb 7.46719 -7.80533
lclavicle -2.74913e-014 1.31695e-015
lhumerus -34.6293 0.947031 84.1784
lradius 21.2043
lwrist 3.41988
lhand -24.8538 27.1675
lfingers 7.12502
lthumb 1.65278 57.1409
rfemur 2.88994 5.16649 34.7095
rtibia 22.6621
rfoot -19.4218 -7.07823
rtoes 3.45645
lfemur -28.7233 -2.26639 -10.5198
ltibia 26.4135
lfoot -5.35991 7.06778
ltoes -7.7581
106
root 0.198893 17.9642 -9.09596 0.10718 -2.77806 -7.60196
lowerback 10.0065 1.77308 6.77847
upperback 0.0224814 3.25893 2.03251
thorax -5.34089 1.45151 -2.13944
lowerneck -16.7289 -3.35283 -0.847552
upperneck 21.886 -4.4407 -0.0433465
head 9.71455 -2.13336 -0.458671
rclavicle -1.64292e-014 -3.80424e-014
rhumerus -21.441 -8.67946 -79.7853
rradius 35.277
rwrist -4.9663
rhand -18.9041 21.9125
rfingers 7.12502
rthumb 7.39771 -7.93812
lclavicle -1.64292e-014 -3.80424e-014
lhumerus -34.2639 1.14677 84.1283
lradius 20.6419
lwrist 3.17439
lhand -24.8287 29.0325
lfingers 7.12502
lthumb 1.67698 59.0057
rfemur 3.7382 5.10155 34.6333
rtibia 22.0409
rfoot -19.4035 -7.02641
rtoes 2.92921
lfemur -27.9541 -3.12652 -10.1819
ltibia 23.3498
lfoot -6.23059 7.18057
ltoes -3.29531
